<svg viewBox="0 0 1200 630" fill="none" xmlns="http://www.w3.org/2000/svg">
  <g stroke="#ffffff" stroke-width="2">
    <path d="M118 44V586M82 142H1144M82 286H1144M82 430H1144M82 574H1144" opacity=".34"/>

    <g font-family="IBM Plex Mono, Arial, sans-serif" font-size="30" font-weight="600" fill="#ffffff" stroke="none" opacity=".56">
      <text x="28" y="105">01</text>
      <text x="28" y="249">02</text>
      <text x="28" y="393">03</text>
      <text x="28" y="537">04</text>
    </g>

    <g opacity=".72">
      <rect x="168" y="82" width="72" height="48"/>
      <path d="M240 106H356"/>
      <rect x="356" y="92" width="28" height="28"/>
      <path d="M384 106H518"/>
      <circle cx="548" cy="106" r="30"/>

      <rect x="168" y="194" width="46" height="46"/>
      <rect x="168" y="262" width="46" height="46"/>
      <path d="M214 217H272M214 285H272M272 217V238M272 285V264"/>
      <path d="M272 238H314V220H350C389 220 410 236 410 251C410 266 389 282 350 282H314V264H272Z"/>
      <path d="M410 251H530"/>
      <circle cx="560" cy="251" r="30"/>

      <rect x="168" y="370" width="72" height="48"/>
      <path d="M240 394H350"/>
      <path d="M382 362 414 394 382 426 350 394Z"/>
      <path d="M414 394H520V354H624M520 394V434H624"/>
      <circle cx="654" cy="354" r="30"/>
      <circle cx="654" cy="434" r="30"/>

      <path d="M168 506H218C250 506 268 520 268 538C268 556 250 570 218 570H168Z"/>
      <path d="M268 538H388"/>
      <rect x="388" y="524" width="28" height="28"/>
      <path d="M416 538H520"/>
      <circle cx="550" cy="538" r="30"/>
      <path d="M550 508V468H744V286" opacity=".68"/>

      <rect x="758" y="214" width="88" height="74"/>
      <path d="M846 251H922"/>
      <path d="M952 221 982 251 952 281 922 251Z"/>
      <path d="M982 251H1060"/>
      <circle cx="1090" cy="251" r="30"/>
    </g>

    <circle cx="1090" cy="538" r="38" fill="#0b4fe8" stroke="#0b4fe8"/>
    <path d="m1072 538 12 12 24-28" stroke="#ffffff" stroke-width="5"/>
    <path d="M580 538H1052" opacity=".72"/>
  </g>
</svg>
